<?xml version="1.0" standalone="no"?>
<!DOCTYPE svg PUBLIC "-//W3C//DTD SVG 20010904//EN"
 "http://www.w3.org/TR/2001/REC-SVG-20010904/DTD/svg10.dtd">
<svg version="1.0" xmlns="http://www.w3.org/2000/svg"
 width="180.000000pt" height="180.000000pt" viewBox="0 0 180.000000 180.000000"
 preserveAspectRatio="xMidYMid meet">
<metadata>
Created by potrace 1.11, written by Peter Selinger 2001-2013
</metadata>
<g transform="translate(0.000000,180.000000) scale(0.100000,-0.100000)"
fill="#000000" stroke="none">
<path d="M755 1649 c-60 -22 -139 -51 -175 -64 -115 -42 -344 -123 -387 -137
-24 -7 -43 -19 -43 -26 0 -14 58 -518 90 -780 11 -90 20 -169 20 -177 0 -7 46
-39 102 -71 348 -193 517 -284 528 -284 12 0 145 69 240 125 30 18 82 47 115
65 221 120 261 143 272 153 6 7 35 206 67 462 31 248 58 466 62 486 l5 36
-108 36 c-59 20 -227 77 -373 126 -145 50 -273 91 -285 90 -11 0 -69 -18 -130
-40z m235 -224 c140 -301 384 -823 413 -882 13 -29 22 -54 19 -57 -7 -8 -131
-7 -159 0 -16 5 -34 36 -75 132 l-54 127 -233 0 -233 0 -50 -126 -49 -126 -96
-6 c-53 -4 -98 -5 -100 -3 -3 3 86 205 393 888 65 146 122 263 125 260 3 -4
48 -97 99 -207z"/>
<path d="M814 1082 l-71 -167 149 -9 c87 -5 153 -5 158 0 5 5 -18 64 -52 134
-33 69 -69 144 -79 168 -10 23 -22 42 -26 42 -4 0 -40 -75 -79 -168z"/>
</g>
</svg>
