<?xml version="1.0" standalone="no"?>
<!DOCTYPE svg PUBLIC "-//W3C//DTD SVG 20010904//EN"
 "http://www.w3.org/TR/2001/REC-SVG-20010904/DTD/svg10.dtd">
<svg version="1.0" xmlns="http://www.w3.org/2000/svg"
 width="246.000000pt" height="205.000000pt" viewBox="0 0 246.000000 205.000000"
 preserveAspectRatio="xMidYMid meet">
<metadata>
Created by potrace 1.11, written by Peter Selinger 2001-2013
</metadata>
<g transform="translate(0.000000,205.000000) scale(0.100000,-0.100000)"
fill="#000000" stroke="none">
<path d="M634 1934 c-15 -67 -15 -89 -6 -147 12 -67 12 -68 -18 -108 -80 -111
-97 -259 -54 -461 l6 -27 -133 -4 -134 -3 137 -2 c124 -2 138 -4 148 -21 9
-18 6 -20 -27 -24 l-38 -4 42 -1 c30 -2 43 -7 47 -20 3 -10 27 -39 53 -65 72
-73 177 -119 351 -153 l23 -5 -25 -32 c-13 -17 -31 -49 -39 -69 -12 -29 -23
-39 -54 -47 -92 -26 -163 -5 -216 62 -84 106 -142 144 -197 130 -32 -8 -23
-29 24 -57 26 -15 56 -45 73 -72 58 -94 89 -128 138 -153 42 -22 62 -26 132
-25 l83 0 0 -124 c0 -135 2 -129 -74 -190 -24 -19 -10 -32 36 -32 53 0 106 26
129 64 16 27 19 52 19 183 0 146 9 203 33 203 5 0 8 -89 5 -223 l-3 -223 -28
-33 c-15 -18 -25 -37 -21 -42 10 -17 71 -9 105 14 57 38 59 49 59 305 0 199 2
232 15 232 13 0 15 -33 15 -232 0 -216 2 -235 20 -266 21 -35 72 -62 114 -62
37 0 41 17 12 51 l-26 31 0 226 c0 181 3 224 13 214 8 -9 14 -67 17 -185 4
-114 10 -180 19 -195 24 -43 157 -83 176 -53 6 10 -32 51 -47 51 -5 0 -16 16
-24 35 -10 25 -14 78 -14 202 0 187 -8 228 -51 278 l-30 34 38 6 c206 36 324
98 379 200 17 32 23 35 64 37 l45 1 -43 4 c-34 3 -42 8 -38 19 3 9 6 18 6 20
0 2 64 5 143 6 l142 2 -138 3 -138 4 8 57 c4 31 8 109 7 172 0 128 -16 183
-77 268 -31 42 -32 48 -33 141 0 53 -6 116 -14 140 l-14 43 -49 -6 c-52 -7
-158 -51 -206 -86 -27 -19 -34 -19 -83 -8 -76 18 -338 16 -409 -4 -49 -13 -58
-13 -75 0 -41 31 -182 91 -231 97 l-51 7 -18 -78z m521 -456 c72 -1 191 -1
265 2 124 3 140 2 181 -18 92 -44 146 -155 130 -266 -12 -81 -23 -107 -66
-154 -42 -47 -105 -76 -198 -92 -94 -17 -453 -8 -524 13 -122 35 -188 88 -218
176 -21 61 -19 156 4 206 26 57 100 122 148 130 21 4 43 8 48 9 6 2 30 2 55 0
25 -1 104 -4 175 -6z"/>
<path d="M919 1320 c-18 -15 -20 -18 -5 -14 20 8 37 -11 29 -33 -7 -18 -30
-16 -42 5 -8 13 -10 5 -11 -34 0 -119 108 -145 127 -31 7 46 -2 82 -27 107
-25 25 -42 25 -71 0z"/>
<path d="M1465 1315 c-51 -50 -22 -175 40 -175 62 0 91 125 40 175 -13 14 -31
25 -40 25 -9 0 -27 -11 -40 -25z"/>
</g>
</svg>
