<?xml version="1.0" standalone="no"?>
<!DOCTYPE svg PUBLIC "-//W3C//DTD SVG 20010904//EN"
 "http://www.w3.org/TR/2001/REC-SVG-20010904/DTD/svg10.dtd">
<svg version="1.0" xmlns="http://www.w3.org/2000/svg"
 width="204.000000pt" height="204.000000pt" viewBox="0 0 204.000000 204.000000"
 preserveAspectRatio="xMidYMid meet">
<metadata>
Created by potrace 1.11, written by Peter Selinger 2001-2013
</metadata>
<g transform="translate(0.000000,204.000000) scale(0.100000,-0.100000)"
fill="#000000" stroke="none">
<path d="M524 1733 c-66 -114 -121 -211 -122 -216 -4 -8 56 -116 177 -322 l67
-115 120 207 c65 114 121 211 123 216 3 7 -196 363 -234 420 -11 15 -28 -9
-131 -190z"/>
<path d="M1362 1433 c-22 -38 -74 -127 -116 -200 -42 -72 -79 -139 -82 -147
-5 -13 183 -358 229 -420 12 -17 24 0 135 192 67 116 122 213 122 216 0 2 -48
87 -106 188 -59 101 -113 195 -121 211 -8 15 -16 27 -18 27 -2 0 -22 -30 -43
-67z"/>
<path d="M40 270 c0 -123 1 -130 20 -130 18 0 20 7 20 60 l0 60 65 0 65 0 0
-60 c0 -50 3 -60 18 -60 15 0 17 12 14 130 -3 105 -6 130 -18 130 -10 0 -14
-14 -14 -55 l0 -55 -65 0 -65 0 0 55 c0 48 -2 55 -20 55 -19 0 -20 -7 -20
-130z"/>
<path d="M460 270 l0 -130 49 0 c64 0 98 14 112 44 15 32 4 73 -22 81 l-21 7
21 22 c12 12 21 34 21 49 0 38 -34 57 -102 57 l-58 0 0 -130z"/>
<path d="M700 270 l0 -130 65 0 c51 0 65 3 65 15 0 11 -12 15 -45 15 l-45 0 0
45 0 45 45 0 c33 0 45 4 45 15 0 11 -12 15 -45 15 l-45 0 0 40 0 40 45 0 c33
0 45 4 45 15 0 12 -14 15 -65 15 l-65 0 0 -130z"/>
<path d="M910 270 c0 -122 1 -130 20 -130 16 0 19 8 22 56 l3 57 39 -57 c29
-42 44 -56 63 -56 23 0 22 2 -22 60 l-46 59 26 7 c29 7 55 39 55 67 0 10 -11
29 -25 42 -20 21 -34 25 -80 25 l-55 0 0 -130z"/>
</g>
</svg>
