<?xml version="1.0" standalone="no"?>
<!DOCTYPE svg PUBLIC "-//W3C//DTD SVG 20010904//EN"
 "http://www.w3.org/TR/2001/REC-SVG-20010904/DTD/svg10.dtd">
<svg version="1.0" xmlns="http://www.w3.org/2000/svg"
 width="227.000000pt" height="222.000000pt" viewBox="0 0 227.000000 222.000000"
 preserveAspectRatio="xMidYMid meet">
<metadata>
Created by potrace 1.11, written by Peter Selinger 2001-2013
</metadata>
<g transform="translate(0.000000,222.000000) scale(0.100000,-0.100000)"
fill="#000000" stroke="none">
<path d="M50 1535 c0 -121 2 -145 15 -145 12 0 15 23 17 127 l3 128 46 -125
c29 -80 50 -125 60 -125 9 0 28 41 54 112 22 62 44 115 48 119 4 4 7 -47 7
-114 0 -102 2 -122 15 -122 13 0 15 23 15 146 l0 145 -27 -3 c-25 -3 -31 -12
-67 -110 -21 -59 -41 -106 -45 -104 -3 2 -24 52 -46 110 -37 99 -41 106 -67
106 l-28 0 0 -145z"/>
<path d="M859 1581 c-24 -25 -29 -38 -29 -79 0 -69 35 -112 89 -112 68 0 111
60 96 136 -15 83 -99 112 -156 55z m85 -3 c26 -11 31 -21 40 -68 6 -36 -18
-87 -44 -95 -69 -22 -110 116 -47 160 26 18 20 18 51 3z"/>
<path d="M1070 1590 c-43 -43 -20 -81 63 -104 44 -13 57 -21 57 -36 0 -41 -69
-50 -104 -14 -9 8 -24 14 -34 12 -15 -3 -13 -7 10 -31 21 -21 37 -27 70 -27
59 0 88 22 88 66 0 37 -5 41 -89 66 -25 7 -46 18 -48 23 -5 17 11 33 39 40 20
5 32 1 48 -15 17 -17 25 -19 34 -10 8 9 5 16 -13 31 -31 26 -95 25 -121 -1z"/>
<path d="M1289 1581 c-24 -24 -29 -38 -29 -76 0 -51 20 -99 45 -109 54 -20
118 8 135 59 38 114 -71 205 -151 126z m101 -11 c15 -15 20 -33 20 -70 0 -86
-61 -121 -100 -57 -24 38 -25 68 -5 107 23 44 54 51 85 20z"/>
<path d="M1880 1340 l0 -80 -273 0 c-209 0 -285 -3 -321 -14 -143 -43 -221
-170 -220 -356 1 -105 24 -185 71 -240 l25 -30 -130 0 -130 0 -4 243 c-3 229
-4 245 -26 289 -72 146 -291 159 -384 22 -13 -19 -26 -34 -30 -34 -5 0 -8 25
-8 55 l0 55 -45 0 -45 0 0 -355 0 -355 49 0 49 0 4 238 c3 201 6 243 21 277
49 109 168 155 255 98 50 -32 56 -67 60 -351 l4 -263 336 3 337 3 51 27 c56
29 94 69 124 129 l20 37 -33 7 c-17 4 -39 9 -48 11 -12 3 -25 -9 -43 -40 -36
-62 -82 -88 -155 -88 -121 0 -194 70 -208 202 l-6 60 253 0 253 0 -6 73 c-8
90 -21 132 -59 180 l-29 37 145 0 145 0 1 -237 c0 -131 5 -255 9 -276 22 -92
78 -127 206 -127 l85 0 0 43 0 44 -55 -5 c-63 -5 -110 10 -128 42 -8 14 -13
100 -15 269 l-4 247 91 0 91 0 0 40 0 40 -90 0 -90 0 0 80 0 80 -50 0 -50 0 0
-80z m-433 -171 c58 -22 104 -87 116 -161 l6 -38 -190 0 -189 0 0 25 c0 34 26
94 53 124 48 52 140 74 204 50z"/>
<path d="M114 750 c-37 -15 -64 -59 -64 -105 0 -37 5 -48 35 -74 39 -34 71
-39 115 -16 40 20 60 53 60 95 0 45 -23 78 -66 96 -38 16 -50 16 -80 4z"/>
</g>
</svg>
