<?xml version="1.0" standalone="no"?>
<!DOCTYPE svg PUBLIC "-//W3C//DTD SVG 20010904//EN"
 "http://www.w3.org/TR/2001/REC-SVG-20010904/DTD/svg10.dtd">
<svg version="1.0" xmlns="http://www.w3.org/2000/svg"
 width="240.000000pt" height="160.000000pt" viewBox="0 0 240.000000 160.000000"
 preserveAspectRatio="xMidYMid meet">
<metadata>
Created by potrace 1.11, written by Peter Selinger 2001-2013
</metadata>
<g transform="translate(0.000000,160.000000) scale(0.100000,-0.100000)"
fill="#000000" stroke="none">
<path d="M423 1114 c-33 -14 -214 -48 -320 -60 l-63 -7 0 -83 0 -83 47 -6 c27
-3 62 -9 78 -14 29 -8 28 -8 -20 -15 -27 -4 -63 -10 -78 -13 l-28 -5 3 -81 3
-81 45 -8 c120 -20 121 -21 35 -32 l-80 -11 -3 -77 c-3 -91 -17 -85 143 -63
138 20 233 42 262 61 21 13 23 22 23 102 0 57 -4 93 -12 101 -10 11 -10 14 0
18 16 6 17 189 1 199 -8 4 -8 9 0 17 12 12 15 157 4 156 -5 0 -22 -7 -40 -15z"/>
<path d="M1820 810 l0 -280 70 0 70 0 0 280 0 280 -70 0 -70 0 0 -280z"/>
<path d="M676 1055 c-114 -40 -151 -169 -72 -248 19 -19 66 -47 107 -63 60
-24 75 -35 77 -54 7 -49 -59 -64 -154 -35 -27 8 -50 15 -51 15 -1 0 -7 -25
-14 -56 -15 -65 -13 -67 64 -84 106 -22 202 -2 256 54 29 30 35 44 39 92 8 94
-24 133 -150 183 -71 28 -84 42 -68 71 11 20 18 22 78 18 37 -3 74 -8 83 -12
13 -5 18 4 28 49 7 31 11 58 9 59 -32 27 -170 33 -232 11z"/>
<path d="M1495 924 c-56 -13 -95 -28 -95 -37 0 -5 5 -27 11 -47 l12 -38 33 14
c57 24 134 15 134 -17 0 -3 -26 -9 -58 -13 -105 -12 -162 -64 -162 -147 0 -92
115 -149 198 -99 28 17 33 18 38 5 5 -11 22 -15 68 -15 l61 0 -3 147 c-4 165
-13 193 -70 226 -31 19 -127 31 -167 21z"/>
<path d="M2130 919 c-64 -16 -69 -21 -57 -73 l10 -44 33 14 c47 20 120 18 128
-2 9 -23 8 -24 -22 -24 -54 0 -130 -29 -156 -60 -77 -92 -8 -219 112 -207 24
3 51 12 61 21 22 20 31 20 31 1 0 -12 14 -15 66 -15 l66 0 -4 149 c-3 165 -10
186 -77 224 -38 23 -129 30 -191 16z"/>
<path d="M1146 905 c-88 -31 -136 -99 -136 -191 0 -78 33 -132 100 -167 49
-26 63 -28 128 -24 40 2 75 6 78 9 3 3 2 29 -2 56 l-6 51 -42 -5 c-50 -6 -86
11 -104 50 -34 69 22 143 100 131 39 -5 39 -5 53 61 5 27 3 32 -17 38 -39 10
-111 6 -152 -9z"/>
</g>
</svg>
