<?xml version="1.0" standalone="no"?>
<!DOCTYPE svg PUBLIC "-//W3C//DTD SVG 20010904//EN"
 "http://www.w3.org/TR/2001/REC-SVG-20010904/DTD/svg10.dtd">
<svg version="1.0" xmlns="http://www.w3.org/2000/svg"
 width="201.000000pt" height="120.000000pt" viewBox="0 0 201.000000 120.000000"
 preserveAspectRatio="xMidYMid meet">
<metadata>
Created by potrace 1.11, written by Peter Selinger 2001-2013
</metadata>
<g transform="translate(0.000000,120.000000) scale(0.100000,-0.100000)"
fill="#000000" stroke="none">
<path d="M1516 863 c-43 -48 -153 -108 -213 -117 -21 -3 -64 -8 -95 -11 -55
-6 -57 -7 -48 -30 5 -12 6 -26 2 -30 -7 -7 7 -4 133 27 113 27 182 74 244 166
33 48 22 45 -23 -5z"/>
<path d="M295 593 c-36 -10 -64 -35 -75 -68 -17 -51 7 -89 67 -110 99 -34 117
-50 88 -79 -22 -22 -72 -20 -116 3 -39 21 -63 15 -57 -15 5 -29 65 -54 131
-54 83 0 116 35 107 115 -2 21 -27 55 -41 55 -5 0 -33 9 -64 21 -51 19 -56 23
-53 47 3 25 7 27 43 25 22 -1 57 -5 78 -8 33 -7 37 -5 37 14 0 15 -10 26 -32
35 -43 18 -88 25 -113 19z"/>
<path d="M497 589 c-15 -9 -17 -31 -17 -203 0 -164 2 -196 16 -207 30 -25 49
1 52 75 l3 67 30 -26 c23 -19 42 -25 77 -25 95 0 142 53 142 159 0 84 -23 125
-86 152 -53 24 -91 19 -134 -18 -29 -24 -30 -24 -30 -4 0 26 -29 43 -53 30z
m183 -64 c33 -17 60 -61 60 -97 0 -33 -36 -87 -66 -98 -40 -16 -54 -12 -90 24
-28 28 -34 42 -34 76 0 53 14 78 53 95 41 18 42 18 77 0z"/>
<path d="M856 587 c-14 -11 -16 -32 -14 -162 l3 -150 30 0 30 0 5 97 c4 84 8
100 28 121 13 14 36 28 50 32 42 10 52 34 26 59 -20 21 -25 20 -68 -9 -26 -18
-36 -21 -36 -10 0 22 -34 36 -54 22z"/>
<path d="M1077 587 c-16 -11 -17 -30 -15 -162 3 -150 3 -150 27 -153 13 -2 28
2 32 10 5 7 9 74 9 149 0 119 -2 138 -18 152 -15 14 -21 15 -35 4z"/>
<path d="M1186 587 c-14 -10 -16 -33 -14 -162 l3 -150 28 -3 27 -3 0 79 c0 99
7 135 32 161 23 26 68 27 97 4 18 -16 21 -30 23 -122 3 -109 13 -133 52 -118
14 5 16 24 16 124 0 99 -3 123 -20 150 -32 53 -103 63 -162 21 -33 -23 -38
-23 -38 1 0 24 -23 33 -44 18z"/>
<path d="M1570 578 c-62 -32 -82 -74 -78 -162 4 -65 5 -70 46 -107 36 -34 47
-39 91 -39 39 0 56 6 80 26 30 25 31 25 31 5 0 -45 -60 -78 -123 -68 -17 3
-52 9 -75 13 -42 7 -44 6 -40 -16 7 -49 158 -71 234 -34 64 31 74 64 74 236 0
135 -2 148 -19 158 -23 12 -51 -10 -51 -38 0 -11 -3 -13 -8 -6 -12 19 -76 54
-97 54 -12 0 -41 -10 -65 -22z m127 -58 c39 -23 56 -74 42 -125 -12 -42 -49
-69 -95 -69 -94 0 -124 144 -40 195 39 24 53 24 93 -1z"/>
</g>
</svg>
